<svg width="64" height="64" viewBox="0 0 64 64" xmlns="http://www.w3.org/2000/svg">

  <!-- Brazo/base principal -->
  <rect x="20" y="33" width="32" height="6" rx="3"
        fill="#777" transform="rotate(-8 36 36)"/>

  <!-- Caja SD100 -->
  <rect x="9" y="19" width="24" height="16" rx="3"
        fill="#f4f6f7" stroke="#8a8a8a" stroke-width="1.5"/>

  <!-- Lado sombra caja -->
  <path d="M33 21 L38 24 L38 37 L33 35 Z"
        fill="#d9dee2" stroke="#8a8a8a" stroke-width="1"/>

  <!-- Etiqueta azul -->
  <rect x="13" y="25" width="15" height="7" rx="1"
        fill="#0b83c9"/>
  <text x="20.5" y="30.5" font-size="4.5" text-anchor="middle"
        fill="white" font-family="Arial">SD100</text>

  <!-- Motor cilíndrico -->
  <ellipse cx="49" cy="25" rx="8" ry="4" fill="#666"/>
  <rect x="41" y="25" width="16" height="17" rx="3" fill="#707070"/>
  <ellipse cx="49" cy="42" rx="8" ry="4" fill="#555"/>

  <!-- Etiqueta motor -->
  <text x="49" y="34" font-size="4" text-anchor="middle"
        fill="white" font-family="Arial">AQ1</text>

  <!-- Disco central -->


  <!-- Salida inferior -->
  <rect x="47" y="44" width="2" height="5" rx="2" fill="#666"/>
  <rect x="38" y="46" width="20" height="5" rx="2"
        fill="#555" transform="rotate(-4 48 55)"/>

  <!-- Tornillos -->
  <circle cx="13" cy="22" r="1" fill="#aaa"/>
  <circle cx="30" cy="22" r="1" fill="#aaa"/>
  <circle cx="13" cy="33" r="1" fill="#aaa"/>
  <circle cx="30" cy="33" r="1" fill="#aaa"/>

</svg>